<svg width="42" height="42" viewBox="0 0 42 42" fill="none" xmlns="http://www.w3.org/2000/svg">
<path d="M15.6548 17.9864C15.6548 20.165 14.0622 21.7727 12.2844 21.7727C10.5066 21.7727 8.91394 20.165 8.91394 17.9864C8.91394 15.8077 10.5066 14.2 12.2844 14.2C14.0622 14.2 15.6548 15.8077 15.6548 17.9864Z" stroke="#F5FFFE" stroke-width="2"/>
<path d="M18.5681 28.9617C18.5681 29.9655 18.4178 30.499 18.2517 30.7839C18.1176 31.0137 17.934 31.1529 17.5752 31.2427C17.1639 31.3457 16.6036 31.3612 15.802 31.3325C15.5786 31.3245 15.3362 31.3131 15.0791 31.301C14.4683 31.2722 13.7739 31.2394 13.0508 31.2394C12.3655 31.2394 11.6596 31.269 10.9991 31.2966C10.6743 31.3102 10.3605 31.3234 10.0654 31.3323C9.12866 31.3607 8.34121 31.3495 7.70043 31.2298C7.06788 31.1117 6.68544 30.9071 6.44827 30.6331C6.21516 30.3638 6 29.8855 6 28.9617C6 25.1512 8.87502 22.1773 12.2841 22.1773C15.6931 22.1773 18.5681 25.1512 18.5681 28.9617Z" stroke="#F5FFFE" stroke-width="2"/>
<path d="M33.0841 17.9864C33.0841 20.165 31.4915 21.7727 29.7137 21.7727C27.9359 21.7727 26.3433 20.165 26.3433 17.9864C26.3433 15.8077 27.9359 14.2 29.7137 14.2C31.4915 14.2 33.0841 15.8077 33.0841 17.9864Z" stroke="#F5FFFE" stroke-width="2"/>
<path d="M36 28.9617C36 29.9655 35.8497 30.499 35.6835 30.7839C35.5495 31.0137 35.3659 31.1529 35.0071 31.2427C34.5958 31.3457 34.0355 31.3612 33.2339 31.3325C33.0105 31.3245 32.7681 31.3131 32.511 31.301C31.9002 31.2722 31.2058 31.2394 30.4827 31.2394C29.7974 31.2394 29.0915 31.269 28.4309 31.2966C28.1062 31.3102 27.7923 31.3234 27.4973 31.3323C26.5605 31.3607 25.7731 31.3495 25.1323 31.2298C24.4998 31.1117 24.1173 30.9071 23.8802 30.6331C23.647 30.3638 23.4319 29.8855 23.4319 28.9617C23.4319 25.1512 26.3069 22.1773 29.7159 22.1773C33.125 22.1773 36 25.1512 36 28.9617Z" stroke="#F5FFFE" stroke-width="2"/>
<path d="M26.0185 14.5C26.0185 17.6251 23.7253 20 21.0834 20C18.4414 20 16.1482 17.6251 16.1482 14.5C16.1482 11.3749 18.4414 9 21.0834 9C23.7253 9 26.0185 11.3749 26.0185 14.5Z" fill="#01322C" stroke="#F5FFFE" stroke-width="2"/>
<path d="M29.9738 29.4049C29.9738 30.7935 29.7677 31.5927 29.4953 32.0598C29.255 32.4718 28.9147 32.7096 28.3543 32.8499C27.7414 33.0033 26.9344 33.0212 25.8466 32.9823C25.5359 32.9712 25.2024 32.9554 24.8506 32.9388C24.0242 32.8999 23.0964 32.8561 22.1231 32.8561C21.1996 32.8561 20.2555 32.8956 19.363 32.9331C18.9196 32.9516 18.4889 32.9697 18.0797 32.9821C16.8053 33.0207 15.7025 33.0071 14.7915 32.8369C13.8886 32.6683 13.2809 32.3651 12.886 31.909C12.4952 31.4576 12.1899 30.7135 12.1899 29.4049C12.1899 24.0551 16.2325 19.8334 21.0819 19.8334C25.9312 19.8334 29.9738 24.0551 29.9738 29.4049Z" fill="#01322C" stroke="#F5FFFE" stroke-width="2"/>
</svg>
